<?xml version="1.0" encoding="UTF-8"?>
<!DOCTYPE svg PUBLIC "-//W3C//DTD SVG 1.1//EN" "http://www.w3.org/Graphics/SVG/1.1/DTD/svg11.dtd">
<!-- Creator: CorelDRAW X7 -->
<svg xmlns="http://www.w3.org/2000/svg" xml:space="preserve" width="12.8543mm" height="8.3987mm" version="1.1" style="shape-rendering:geometricPrecision; text-rendering:geometricPrecision; image-rendering:optimizeQuality; fill-rule:evenodd; clip-rule:evenodd"
viewBox="0 0 241 157"
 xmlns:xlink="http://www.w3.org/1999/xlink">
 <defs>
  <style type="text/css">
   <![CDATA[
    .str0 {stroke:blue;stroke-width:15.8412;stroke-linejoin:round}
    .fil0 {fill:blue}
   ]]>
  </style>
 </defs>
 <g id="Layer_x0020_1">
  <metadata id="CorelCorpID_0Corel-Layer"/>
  <path class="fil0 str0" d="M121 38c13,6 27,14 44,23l0 15c-17,-9 -31,-17 -44,-24 -45,-23 -71,-31 -86,-31 -13,0 -14,15 -14,34l0 88 -13 0 0 0 0 -88c0,-27 1,-46 27,-47 16,-1 42,8 86,30zm0 67c-13,-6 -28,-14 -44,-23l0 15c16,9 31,16 44,23 43,21 69,30 85,29 26,-1 27,-20 27,-46l0 -89 -14 0 0 89c0,19 0,33 -14,33 -14,1 -40,-8 -84,-31z"/>
 </g>
</svg>
